SiMBALORD PRESENTS
... A UKB RELEASE

TiTLE: Van Helsing
TYPE : x264 DVDRip
SiZE : 1.42 GB (1,532,755,115 bytes)

PLOT : The notorious monster hunter is sent
to Transylvania to stop Count Dracula who is
using Dr. Frankenstein's research and a werewolf
for some sinister purpose.

CAST :
Hugh Jackman ... Van Helsing
Kate Beckinsale ... Anna Valerious
Richard Roxburgh ... Count Vladislaus Dracula
David Wenham ... Carl
Shuler Hensley ... Frankenstein's Monster
Elena Anaya ... Aleera
Will Kemp ... Velkan
Kevin J. O'Connor ... Igor
Alun Armstrong ... Cardinal Jinette
Silvia Colloca ... Verona
Josie Maran ... Marishka
Tom Fisher ... Top Hat
Samuel West ... Dr. Victor Frankenstein
Robbie Coltrane ... Mr. Hyde
Stephen Fisher ... Dr. Jekyll (as Stephen H. Fisher)

iMDB : tt0338526

General
Complete name : Van.Helsing[x264][Simbalord.UKB.Release].mp4
Format : MPEG-4
Format profile : Base Media
Codec ID : isom
File size : 1.43 GiB
Duration : 2h 11mn
Overall bit rate : 1 554 Kbps
Writing application : Lavf52.66.0

Video
ID : 1
Format : AVC
Format/Info : Advanced Video Codec
Format profile : High@L4.1
Format settings, CABAC : Yes
Format settings, ReFrames : 3 frames
Codec ID : avc1
Codec ID/Info : Advanced Video Coding
Duration : 2h 11mn
Bit rate mode : Variable
Bit rate : 1 100 Kbps
Width : 720 pixels
Height : 384 pixels
Display aspect ratio : 1.860
Frame rate mode : Constant
Frame rate : 23.976 fps
Resolution : 8 bits
Colorimetry : 4:2:0
Scan type : Progressive
Bits/(Pixel*Frame) : 0.166
Stream size : 1.01 GiB (71%)
Writing library : x264 core 96
Encoding settings : cabac=1 / ref=3 / deblock=1:0:0 / analyse=0x3:0x133 / me=hex / subme=7 / psy=1 /
psy_rd=1.00:0.00 / mixed_ref=1 / me_range=16 / chroma_me=1 / trellis=1 / 8x8dct=1 /
cqm=0 / deadzone=21,11 / fast_pskip=1 / chroma_qp_offset=-2 / threads=6 /
sliced_threads=0 / nr=0 / decimate=1 / interlaced=0 / constrained_intra=0 /
bframes=3 / b_pyramid=1 / b_adapt=2 / b_bias=0 / direct=3 / weightb=1 / weightp=2 /
keyint=230 / keyint_min=23 / scenecut=40 / intra_refresh=0 / rc_lookahead=40 /
rc=2pass / mbtree=1 / bitrate=1100 / ratetol=0.2 / qcomp=0.60 / qpmin=10 / qpmax=51 /
qpstep=4 / cplxblur=20.0 / qblur=0.5 / vbv_maxrate=31250 / vbv_bufsize=31250 /
ip_ratio=1.40 / aq=1:1.00 / nal_hrd=none

Audio
ID : 2
Format : AAC
Format/Info : Advanced Audio Codec
Format version : Version 4
Format profile : LC
Format settings, SBR : No
Codec ID : 40
Duration : 2h 11mn
Bit rate mode : Variable
Bit rate : 448 Kbps
Channel(s) : 6 channels
Channel positions : Front: L C R, Rear: L R, LFE
Sampling rate : 48.0 KHz
Stream size : 421 MiB (29%)